<svg id="Default" xmlns="http://www.w3.org/2000/svg" viewBox="0 0 576 615.77"><defs><style>.cls-1{fill:#00ff54;}</style></defs><path class="cls-1" d="M182.57,662.74a41.18,41.18,0,0,0,41.14,41.15H552.86A41.18,41.18,0,0,0,594,662.74V457a41.17,41.17,0,0,0-41.14-41.14H223.71A41.17,41.17,0,0,0,182.57,457V662.74" transform="translate(-18 -88.11)"/><path class="cls-1" d="M244.29,374.74H306V232.11a144,144,0,0,0-288,0V333.6H79.71V232.11a82.29,82.29,0,0,1,164.58,0V374.74" transform="translate(-18 -88.11)"/></svg>