<svg id="Default" xmlns="http://www.w3.org/2000/svg" viewBox="0 0 576 576"><defs><style>.cls-1{fill:#ccc;}</style></defs><path class="cls-1" d="M449.42,254.32l-.51-.51" transform="translate(-18 -108)"/><path class="cls-1" d="M306,108C147.09,108,18,237.09,18,396S147.09,684,306,684,594,554.91,594,396,464.91,108,306,108Zm0,521.6C177.1,629.6,72.4,524.9,72.4,396S177.1,162.4,306,162.4,539.6,267.1,539.6,396,434.9,629.6,306,629.6Z" transform="translate(-18 -108)"/><path class="cls-1" d="M226.14,416.62l-87.57,95.31a203.68,203.68,0,0,1-30.43-164.15l118,68.84" transform="translate(-18 -108)"/><path class="cls-1" d="M159.84,537.8l95.63-104.08L306,463.2l50.53-29.48L452.16,537.8a203.62,203.62,0,0,1-292.32,0" transform="translate(-18 -108)"/><path class="cls-1" d="M473.43,511.93l-87.57-95.31,118-68.84a203.68,203.68,0,0,1-30.43,164.15" transform="translate(-18 -108)"/><path class="cls-1" d="M118.88,315.64,306,424.8,493.12,315.64a203.64,203.64,0,0,0-374.24,0" transform="translate(-18 -108)"/></svg>