<?xml version="1.0" encoding="utf-8"?>
<!-- Generator: Adobe Illustrator 25.3.1, SVG Export Plug-In . SVG Version: 6.00 Build 0)  -->
<svg version="1.1" id="Default" xmlns="http://www.w3.org/2000/svg" xmlns:xlink="http://www.w3.org/1999/xlink" x="0px" y="0px"
	 viewBox="0 0 514.7 514.7" style="enable-background:new 0 0 514.7 514.7;" xml:space="preserve">
<style type="text/css">
	.st0{fill:#7d7d7d;}
</style>
<path class="st0" d="M0.7,276.9c-6.3-83,27.9-163.9,91.8-217.2l142.2,82.1L0.7,276.9"/>
<path class="st0" d="M146,489.4c-75-36-128-106.1-142.2-188.2L146,219.1V489.4"/>
<path class="st0" d="M112.1,44.9c68.7-47,155.9-57.8,234-29.1V180L112.1,44.9"/>
<path class="st0" d="M368.8,25.4c75,36,128,106.1,142.2,188.1l-142.2,82.1V25.4"/>
<path class="st0" d="M514,237.8c6.3,83-27.9,163.9-91.8,217.2L280,372.9L514,237.8"/>
<path class="st0" d="M402.6,469.8c-68.7,47-155.9,57.8-234,29.1V334.7L402.6,469.8"/>
</svg>