<svg id="Default" xmlns="http://www.w3.org/2000/svg" viewBox="0 0 576.01 575.06"><defs><style>.cls-1{fill:#ffa800;}</style>
</defs>
<path class="cls-1" d="M287.62,676a4.72,4.72,0,0,0-4.33-4.7C135.92,659.1,24.4,532.85,30.49,385.11S158.13,120.73,306,120.73,575.42,237.36,581.51,385.11s-105.43,274-252.8,286.17a4.72,4.72,0,0,0-4.33,4.7v2.84a4.74,4.74,0,0,0,1.52,3.46,4.68,4.68,0,0,0,3.58,1.23c154-12.59,270.59-144.43,264.28-298.79S460.49,108.47,306,108.47,24.54,230.36,18.24,384.72s110.31,286.2,264.28,298.79a4.71,4.71,0,0,0,5.1-4.69V676" transform="translate(-18 -108.47)"/>
</svg>