<svg id="Default" xmlns="http://www.w3.org/2000/svg" viewBox="0 0 576 576"><defs><style>.cls-1{fill:#ccc;}</style></defs><path class="cls-1" d="M306,108C147.09,108,18,237.09,18,396S147.09,684,306,684,594,554.91,594,396,464.91,108,306,108Zm0,521.6C177.1,629.6,72.4,524.9,72.4,396S177.1,162.4,306,162.4,539.6,267.1,539.6,396,434.9,629.6,306,629.6Z" transform="translate(-18 -108)"/><path class="cls-1" d="M146.77,519.65,248.4,367.2,363.6,396,450,252,392.4,482.4,277.2,453.6,233.67,584.18a201.59,201.59,0,0,1-86.9-64.53" transform="translate(-18 -108)"/></svg>