<svg id="Default" xmlns="http://www.w3.org/2000/svg" viewBox="0 0 576 576"><defs><style>.cls-1{fill:#ccc;}</style></defs><path class="cls-1" d="M306,108C147.09,108,18,237.09,18,396S147.09,684,306,684,594,554.91,594,396,464.91,108,306,108Zm0,521.6C177.1,629.6,72.4,524.9,72.4,396S177.1,162.4,306,162.4,539.6,267.1,539.6,396,434.9,629.6,306,629.6Z" transform="translate(-18 -108)"/><path class="cls-1" d="M419.75,469,334.8,384.07V223.2a28.8,28.8,0,0,0-57.6,0V396a28.75,28.75,0,0,0,8.44,20.36L379,509.75A28.8,28.8,0,0,0,419.75,469" transform="translate(-18 -108)"/></svg>